<svg width="322" height="228" xmlns="http://www.w3.org/2000/svg" xmlns:xlink="http://www.w3.org/1999/xlink" xml:space="preserve" overflow="hidden"><defs><clipPath id="clip0"><rect x="371" y="245" width="322" height="228"/></clipPath></defs><g clip-path="url(#clip0)" transform="translate(-371 -245)"><path d="M433.872 3.98081C429.934-1.61026 400.055 13.3764 396.468 15.1756 377.984 24.4469 364.171 35.1678 354.794 43.5195 346.143 39.0929 337.492 34.6664 328.841 30.2397 330.782 28.7469 332.722 27.2543 334.663 25.7617 333.565 24.3301 331.783 22.3516 329.133 20.591 325.993 18.504 322.995 17.6271 321.093 17.2286 319.338 18.7879 317.584 20.3475 315.83 21.9068 300.625 14.6069 285.421 7.30695 270.216 0.00704165 270.138 0.00414215 270.059 0.00248529 269.98 0 261.097 3.0103 252.886 7.64806 244.433 11.7014 263.494 23.1614 282.556 34.6215 301.618 46.0816L298.287 49.2447C299.261 49.8783 300.236 50.5118 301.211 51.1453 302.846 50.359 304.481 49.5724 306.116 48.786 312.935 52.8861 319.755 56.9864 326.575 61.0865L252.674 123.803C244.468 120 236.261 116.197 228.054 112.394 221.621 114.782 215.189 117.17 208.756 119.557L239.749 138.855C237.719 141.129 235.688 143.403 233.658 145.677 234.129 146.327 234.6 146.977 235.071 147.627 237.8 146.652 240.529 145.677 243.258 144.703 244.671 156.009 246.084 167.314 247.498 178.62 252.322 173.893 257.146 169.166 261.971 164.439 261.796 154.987 261.621 145.536 261.446 136.084L344.557 86.7436 348.48 107.771 345.215 110.938 345.751 113.034C346.628 113.118 347.505 113.201 348.382 113.285 351.878 137.547 355.374 161.81 358.871 186.073 361.496 183.776 363.575 181.821 364.953 180.438 369.443 175.936 373.736 171.2 378.455 166.934 379.12 166.333 379.797 165.744 380.48 165.162 379.543 146.698 378.606 128.233 377.67 109.769 379.716 108.599 381.763 107.43 383.81 106.26 384.167 104.387 384.499 101.371 383.81 97.7811 383.255 94.8932 382.233 92.6391 381.398 91.1293 379.132 91.9333 376.866 92.7374 374.6 93.5415 373.597 84.2985 372.594 75.0557 371.592 65.8129 383.563 58.6747 399.391 47.6827 415.181 31.2568 421.8 24.3718 437.056 8.50134 433.872 3.98081Z" fill="#5E17EB" transform="matrix(1.00417 0 0 1 254.12 246.64)"/><path d="M20.2605 363.794C6.36668 396.254-5.3676 437.871 2.56958 473.061 5.81557 488.963 13.4315 505.225 27.3651 514.444 40.7981 523.584 58.0482 525.055 73.5525 521.595 53.2881 522.904 32.4562 516.944 21.3097 498.918 16.0531 490.615 13.4732 480.96 12.086 471.296 6.38532 434.287 23.4385 388.705 39.8986 355.814 57.0773 321.663 78.9617 289.959 103.687 260.8 126.114 234.385 150.955 210.192 177.76 188.146 192.707 175.818 208.345 164.241 224.253 153.182 136.753 196.194 59.3768 274.164 20.2605 363.793Z" fill="#5E17EB" transform="matrix(1.00417 0 0 1 254.12 246.64)"/></g></svg>